# xmcd
# Copyright (C) 1995-1998 Ti Kan
#
# Track frame offsets:
#       150
#       15715
#       31686
#       46006
#       62943
#       82883
#       96850
#       115214
#       132257
#       147042
#       162935
#       180884
#       197193
#
# Disc length: 3243 seconds
#
# Revision: 0
# Processed by: cddbd v1.5.2PL0 Copyright (c) Steve Scherf et al.
# Submitted via: CD-Transfer v1.0
#
DISCID=9e0ca90d
DTITLE=Bündnerflaisch - 
DYEAR=2011
DGENRE=
TTITLE0=Afoh
TTITLE1=Isches Das Schu Gsi
TTITLE2=Inaloh
TTITLE3=Kunnt Scho Guat
TTITLE4=Für Mi Do
TTITLE5=Nur Du
TTITLE6=Vu Miar Zu Diar
TTITLE7=Vil Meh Will I Nid
TTITLE8=Schön Gsi
TTITLE9=Wisa
TTITLE10=Liebestöff
TTITLE11=Herr Schmidt
TTITLE12=Engel
EXTD=
EXTT0=
EXTT1=
EXTT2=
EXTT3=
EXTT4=
EXTT5=
EXTT6=
EXTT7=
EXTT8=
EXTT9=
EXTT10=
EXTT11=
EXTT12=
PLAYORDER=
